<svg xmlns="http://www.w3.org/2000/svg" xmlns:xlink="http://www.w3.org/1999/xlink" width="500" zoomAndPan="magnify" viewBox="0 0 375 374.999991" height="500" preserveAspectRatio="xMidYMid meet" version="1.0"><defs><clipPath id="id1"><path d="M 18.75 6.777344 L 355.929688 6.777344 L 355.929688 368.558594 L 18.75 368.558594 Z M 18.75 6.777344 " clip-rule="nonzero"/></clipPath><clipPath id="id2"><path d="M 78.011719 105.382812 L 296.527344 105.382812 L 296.527344 268.910156 L 78.011719 268.910156 Z M 78.011719 105.382812 " clip-rule="nonzero"/></clipPath><clipPath id="id3"><path d="M 255 160 L 268.28125 160 L 268.28125 174 L 255 174 Z M 255 160 " clip-rule="nonzero"/></clipPath><clipPath id="id4"><path d="M 160 105.605469 L 174 105.605469 L 174 119 L 160 119 Z M 160 105.605469 " clip-rule="nonzero"/></clipPath><clipPath id="id5"><path d="M 106.203125 200 L 120 200 L 120 215 L 106.203125 215 Z M 106.203125 200 " clip-rule="nonzero"/></clipPath><clipPath id="id6"><path d="M 200 256 L 214 256 L 214 269.132812 L 200 269.132812 Z M 200 256 " clip-rule="nonzero"/></clipPath></defs><rect x="-37.5" width="450" fill="#ffffff" y="-37.499999" height="449.999989" fill-opacity="1"/><rect x="-37.5" width="450" fill="#ffffff" y="-37.499999" height="449.999989" fill-opacity="1"/><rect x="-37.5" width="450" fill="#ffeeee" y="-37.499999" height="449.999989" fill-opacity="1"/><g clip-path="url(#id1)"><path fill="#710000" d="M 45.4375 198.949219 C 39.84375 192.378906 36.878906 184.300781 36.878906 175.609375 C 36.878906 165.574219 41.066406 155.964844 48.351562 149.226562 C 49.976562 147.746094 50.65625 145.484375 50.117188 143.339844 C 49.316406 140.136719 48.917969 136.792969 48.917969 133.398438 C 48.917969 111.964844 64.855469 93.972656 86.015625 91.5 C 88.175781 91.261719 90.058594 89.851562 90.882812 87.847656 C 91.726562 85.824219 91.398438 83.515625 90.058594 81.792969 C 86.8125 77.671875 85.027344 72.445312 85.027344 67.074219 C 85.027344 51.695312 99.722656 39.679688 115.332031 43.78125 C 118.410156 44.582031 121.632812 42.835938 122.59375 39.777344 C 126.59375 27.269531 138.113281 18.835938 151.230469 18.835938 C 167.828125 18.835938 181.320312 32.355469 181.320312 48.984375 C 181.320312 52.304688 184.023438 55.015625 187.339844 55.015625 C 190.65625 55.015625 193.359375 52.304688 193.359375 48.984375 C 193.359375 32.355469 206.851562 18.835938 223.449219 18.835938 C 236.566406 18.835938 248.085938 27.269531 252.085938 39.777344 C 253.046875 42.835938 256.269531 44.605469 259.347656 43.78125 C 274.957031 39.679688 289.652344 51.695312 289.652344 67.074219 C 289.652344 72.445312 287.867188 77.671875 284.621094 81.792969 C 283.28125 83.515625 282.953125 85.824219 283.796875 87.847656 C 284.621094 89.851562 286.5 91.261719 288.664062 91.5 C 309.800781 93.972656 325.761719 111.964844 325.761719 133.398438 C 325.761719 136.792969 325.363281 140.136719 324.5625 143.339844 C 324.023438 145.484375 324.703125 147.746094 326.328125 149.226562 C 333.613281 155.964844 337.800781 165.574219 337.800781 175.609375 C 337.800781 184.300781 334.835938 192.378906 329.242188 198.949219 C 328.183594 200.199219 327.667969 201.824219 327.832031 203.449219 C 327.996094 205.097656 328.820312 206.605469 330.113281 207.59375 C 338.808594 214.449219 343.816406 224.765625 343.816406 235.90625 C 343.816406 251.851562 333.191406 266.125 318.003906 270.574219 C 315.300781 271.375 313.515625 273.921875 313.679688 276.746094 C 315.253906 302.207031 297.105469 315.5625 281.070312 319.261719 C 278.839844 319.777344 277.074219 321.546875 276.558594 323.78125 C 272.113281 343.050781 255.234375 356.5 235.488281 356.5 C 212.257812 356.5 193.359375 337.5625 193.359375 314.289062 C 193.359375 310.96875 190.65625 308.261719 187.339844 308.261719 C 184.023438 308.261719 181.320312 310.96875 181.320312 314.289062 C 181.320312 337.5625 162.421875 356.5 139.191406 356.5 C 119.445312 356.5 102.566406 343.050781 98.121094 323.78125 C 97.605469 321.546875 95.839844 319.777344 93.609375 319.261719 C 77.574219 315.5625 59.425781 302.207031 61 276.746094 C 61.1875 273.921875 59.378906 271.375 56.699219 270.574219 C 41.488281 266.125 30.863281 251.851562 30.863281 235.90625 C 30.863281 224.765625 35.871094 214.449219 44.566406 207.59375 C 45.859375 206.605469 46.683594 205.097656 46.847656 203.449219 C 47.011719 201.824219 46.496094 200.199219 45.4375 198.949219 Z M 48.871094 280.609375 C 49.246094 307.175781 67.535156 324.136719 87.332031 330.070312 C 94.21875 352.917969 115.046875 368.558594 139.191406 368.558594 C 160.117188 368.558594 178.335938 356.59375 187.339844 339.140625 C 196.34375 356.59375 214.5625 368.558594 235.488281 368.558594 C 259.628906 368.558594 280.460938 352.917969 287.347656 330.070312 C 307.144531 324.136719 325.433594 307.175781 325.808594 280.609375 C 343.699219 273.355469 355.855469 255.59375 355.855469 235.90625 C 355.855469 223.019531 350.847656 210.960938 341.960938 202.035156 C 347.0625 194.238281 349.835938 185.054688 349.835938 175.609375 C 349.835938 163.382812 345.179688 151.652344 336.953125 142.84375 C 337.515625 139.734375 337.800781 136.578125 337.800781 133.398438 C 337.800781 108.882812 321.53125 87.847656 298.796875 81.277344 C 300.679688 76.824219 301.6875 71.996094 301.6875 67.074219 C 301.6875 47.125 285.492188 30.894531 265.578125 30.894531 C 264.238281 30.894531 262.921875 30.964844 261.605469 31.109375 C 254.765625 16.363281 240.046875 6.777344 223.449219 6.777344 C 208.144531 6.777344 194.722656 14.996094 187.339844 27.269531 C 179.957031 14.996094 166.535156 6.777344 151.230469 6.777344 C 134.632812 6.777344 119.914062 16.363281 113.074219 31.109375 C 111.757812 30.964844 110.441406 30.894531 109.101562 30.894531 C 89.1875 30.894531 72.992188 47.125 72.992188 67.074219 C 72.992188 71.996094 74 76.824219 75.882812 81.277344 C 53.125 87.847656 36.878906 108.882812 36.878906 133.398438 C 36.878906 136.578125 37.164062 139.734375 37.703125 142.84375 C 29.5 151.652344 24.84375 163.382812 24.84375 175.609375 C 24.84375 185.054688 27.617188 194.238281 32.71875 202.035156 C 23.832031 210.960938 18.824219 223.019531 18.824219 235.90625 C 18.824219 255.59375 30.980469 273.355469 48.871094 280.609375 " fill-opacity="1" fill-rule="nonzero"/></g><path fill="#710000" d="M 97.0625 157.519531 C 97.0625 140.890625 110.558594 127.371094 127.15625 127.371094 L 247.523438 127.371094 C 264.121094 127.371094 277.617188 140.890625 277.617188 157.519531 L 277.617188 217.816406 C 277.617188 234.445312 264.121094 247.964844 247.523438 247.964844 L 127.15625 247.964844 C 110.558594 247.964844 97.0625 234.445312 97.0625 217.816406 Z M 127.15625 260.023438 L 247.523438 260.023438 C 270.75 260.023438 289.652344 241.085938 289.652344 217.816406 L 289.652344 157.519531 C 289.652344 134.25 270.75 115.3125 247.523438 115.3125 L 127.15625 115.3125 C 103.929688 115.3125 85.027344 134.25 85.027344 157.519531 L 85.027344 217.816406 C 85.027344 241.085938 103.929688 260.023438 127.15625 260.023438 " fill-opacity="1" fill-rule="nonzero"/><path fill="#710000" d="M 146.972656 222.078125 C 148.148438 223.257812 149.679688 223.84375 151.230469 223.84375 C 152.78125 223.84375 154.308594 223.257812 155.484375 222.078125 C 157.835938 219.722656 157.835938 215.90625 155.484375 213.550781 L 129.648438 187.667969 L 155.484375 161.78125 C 157.835938 159.425781 157.835938 155.609375 155.484375 153.257812 C 153.132812 150.902344 149.324219 150.902344 146.972656 153.257812 L 116.882812 183.402344 C 114.53125 185.757812 114.53125 189.574219 116.882812 191.929688 L 146.972656 222.078125 " fill-opacity="1" fill-rule="nonzero"/><path fill="#710000" d="M 219.195312 222.078125 C 220.371094 223.257812 221.898438 223.84375 223.449219 223.84375 C 225 223.84375 226.53125 223.257812 227.707031 222.078125 L 257.796875 191.929688 C 260.148438 189.574219 260.148438 185.757812 257.796875 183.402344 L 227.707031 153.257812 C 225.355469 150.902344 221.546875 150.902344 219.195312 153.257812 C 216.84375 155.609375 216.84375 159.425781 219.195312 161.78125 L 245.03125 187.667969 L 219.195312 213.550781 C 216.84375 215.90625 216.84375 219.722656 219.195312 222.078125 " fill-opacity="1" fill-rule="nonzero"/><path fill="#710000" d="M 173.65625 235.667969 C 174.199219 235.835938 174.761719 235.90625 175.304688 235.90625 C 177.914062 235.90625 180.335938 234.183594 181.085938 231.523438 L 205.160156 147.109375 C 206.078125 143.90625 204.21875 140.585938 201.023438 139.664062 C 197.871094 138.769531 194.511719 140.609375 193.59375 143.8125 L 169.519531 228.226562 C 168.601562 231.429688 170.460938 234.75 173.65625 235.667969 " fill-opacity="1" fill-rule="nonzero"/><path fill="#710000" d="M 151.230469 284.140625 C 141.613281 284.140625 132.75 286.804688 124.710938 291.75 C 113.875 284.332031 103.765625 284.140625 103.082031 284.140625 C 99.792969 284.140625 97.132812 286.804688 97.085938 290.125 C 97.0625 293.421875 99.722656 296.132812 103.035156 296.203125 C 103.859375 296.226562 123.347656 296.859375 133.597656 322.558594 C 134.539062 324.914062 136.792969 326.351562 139.191406 326.351562 C 139.945312 326.351562 140.699219 326.207031 141.425781 325.925781 C 144.507812 324.679688 146.011719 321.167969 144.789062 318.082031 C 141.777344 310.546875 138.039062 304.75 134.113281 300.183594 C 139.382812 297.566406 145.117188 296.203125 151.230469 296.203125 C 154.542969 296.203125 157.246094 293.492188 157.246094 290.171875 C 157.246094 286.851562 154.542969 284.140625 151.230469 284.140625 " fill-opacity="1" fill-rule="nonzero"/><path fill="#710000" d="M 127.109375 73.105469 C 127.71875 73.128906 142.25 73.503906 152.242188 88.507812 C 153.390625 90.25 155.296875 91.191406 157.246094 91.191406 C 158.398438 91.191406 159.550781 90.863281 160.585938 90.179688 C 163.359375 88.34375 164.113281 84.597656 162.253906 81.816406 C 148.597656 61.28125 128.027344 61.042969 127.15625 61.042969 C 123.839844 61.042969 121.183594 63.730469 121.160156 67.027344 C 121.136719 70.347656 123.816406 73.054688 127.109375 73.105469 " fill-opacity="1" fill-rule="nonzero"/><path fill="#710000" d="M 271.597656 284.140625 C 270.914062 284.140625 260.804688 284.332031 249.96875 291.75 C 241.929688 286.804688 233.066406 284.140625 223.449219 284.140625 C 220.136719 284.140625 217.433594 286.851562 217.433594 290.171875 C 217.433594 293.492188 220.136719 296.203125 223.449219 296.203125 C 229.5625 296.203125 235.296875 297.566406 240.566406 300.183594 C 236.640625 304.75 232.902344 310.546875 229.890625 318.082031 C 228.667969 321.167969 230.171875 324.679688 233.253906 325.925781 C 233.980469 326.207031 234.734375 326.351562 235.488281 326.351562 C 237.882812 326.351562 240.140625 324.914062 241.082031 322.558594 C 251.308594 296.933594 270.703125 296.226562 271.644531 296.203125 C 274.933594 296.179688 277.617188 293.492188 277.617188 290.171875 C 277.617188 286.851562 274.910156 284.140625 271.597656 284.140625 " fill-opacity="1" fill-rule="nonzero"/><path fill="#710000" d="M 217.433594 91.191406 C 219.382812 91.191406 221.289062 90.25 222.4375 88.507812 C 232.382812 73.574219 246.839844 73.128906 247.570312 73.105469 C 250.863281 73.078125 253.542969 70.394531 253.542969 67.074219 C 253.542969 63.753906 250.839844 61.042969 247.523438 61.042969 C 246.652344 61.042969 226.082031 61.28125 212.425781 81.816406 C 210.566406 84.597656 211.320312 88.34375 214.09375 90.179688 C 215.128906 90.863281 216.28125 91.191406 217.433594 91.191406 " fill-opacity="1" fill-rule="nonzero"/><g clip-path="url(#id2)"><path fill="#ffeeee" d="M 78.011719 233.476562 L 78.011719 140.8125 C 78.011719 121.734375 94.398438 105.382812 113.519531 105.382812 L 260.109375 105.382812 C 280.136719 105.382812 296.527344 121.734375 296.527344 140.8125 L 296.527344 232.570312 C 296.527344 252.554688 280.136719 268 261.019531 268 L 113.519531 268 C 94.398438 268.910156 78.011719 252.554688 78.011719 233.476562 Z M 78.011719 233.476562 " fill-opacity="1" fill-rule="nonzero"/></g><path fill="#710000" d="M 185.285156 223.195312 C 175.335938 223.195312 158.234375 222.488281 155.488281 217.757812 C 153.105469 213.65625 152.175781 197.925781 152.101562 185.703125 C 152.054688 177.578125 152.316406 158.347656 155.796875 155.203125 C 159.570312 151.792969 182.816406 151.621094 187.441406 151.621094 C 193.699219 151.621094 214.425781 151.875 218.359375 155.164062 C 222.101562 158.296875 222.460938 175.953125 222.339844 186.199219 C 222.222656 196.140625 221.316406 213.992188 218.644531 217.863281 C 215.070312 223.046875 188.320312 223.195312 185.285156 223.195312 Z M 187.4375 154.789062 C 169.1875 154.789062 159.1875 156.40625 157.914062 157.554688 C 156.832031 158.574219 155.152344 167.132812 155.265625 185.75 C 155.355469 200.34375 156.628906 213.417969 158.222656 216.164062 C 159.089844 217.65625 167.203125 220.027344 185.285156 220.027344 C 203.328125 220.027344 214.921875 217.679688 216.042969 216.058594 C 217.433594 214.042969 218.988281 202.308594 219.175781 186.164062 C 219.398438 167.269531 217.546875 158.613281 216.328125 157.59375 C 214.703125 156.234375 204.023438 154.789062 187.4375 154.789062 Z M 187.4375 154.789062 " fill-opacity="1" fill-rule="nonzero"/><path fill="#710000" d="M 240.371094 199.675781 L 220.777344 199.675781 C 219.902344 199.675781 219.191406 198.96875 219.191406 198.09375 C 219.191406 197.21875 219.902344 196.507812 220.777344 196.507812 L 240.371094 196.507812 C 241.246094 196.507812 241.953125 197.214844 241.953125 198.09375 C 241.953125 198.96875 241.246094 199.675781 240.371094 199.675781 Z M 240.371094 199.675781 " fill-opacity="1" fill-rule="nonzero"/><path fill="#710000" d="M 240.371094 168.457031 L 220.777344 168.457031 C 219.902344 168.457031 219.191406 167.75 219.191406 166.875 C 219.191406 166 219.902344 165.289062 220.777344 165.289062 L 240.371094 165.289062 C 241.246094 165.289062 241.953125 165.996094 241.953125 166.875 C 241.953125 167.75 241.246094 168.457031 240.371094 168.457031 Z M 240.371094 168.457031 " fill-opacity="1" fill-rule="nonzero"/><path fill="#710000" d="M 232.796875 179.03125 L 221.90625 179.03125 C 221.03125 179.03125 220.324219 178.324219 220.324219 177.445312 C 220.324219 176.570312 221.03125 175.863281 221.90625 175.863281 L 232.796875 175.863281 C 233.671875 175.863281 234.378906 176.570312 234.378906 177.445312 C 234.378906 178.324219 233.667969 179.03125 232.796875 179.03125 Z M 232.796875 179.03125 " fill-opacity="1" fill-rule="nonzero"/><path fill="#710000" d="M 242.601562 190.230469 L 220.777344 190.230469 C 219.902344 190.230469 219.191406 189.519531 219.191406 188.644531 C 219.191406 187.769531 219.902344 187.058594 220.777344 187.058594 L 241.308594 187.058594 L 257.574219 171.03125 C 258.195312 170.417969 259.199219 170.425781 259.8125 171.046875 C 260.425781 171.671875 260.417969 172.675781 259.792969 173.289062 Z M 242.601562 190.230469 " fill-opacity="1" fill-rule="nonzero"/><path fill="#710000" d="M 245.347656 208.867188 L 220.777344 208.867188 C 219.902344 208.867188 219.191406 208.160156 219.191406 207.28125 C 219.191406 206.40625 219.902344 205.695312 220.777344 205.695312 L 245.347656 205.695312 C 246.21875 205.695312 246.929688 206.40625 246.929688 207.28125 C 246.929688 208.160156 246.21875 208.867188 245.347656 208.867188 Z M 245.347656 208.867188 " fill-opacity="1" fill-rule="nonzero"/><path fill="#710000" d="M 250.320312 213.847656 C 246.703125 213.847656 243.761719 210.902344 243.761719 207.28125 C 243.761719 203.664062 246.703125 200.71875 250.320312 200.71875 C 253.933594 200.71875 256.875 203.664062 256.875 207.28125 C 256.875 210.902344 253.933594 213.847656 250.320312 213.847656 Z M 250.320312 203.886719 C 248.449219 203.886719 246.929688 205.410156 246.929688 207.28125 C 246.929688 209.15625 248.449219 210.679688 250.320312 210.679688 C 252.1875 210.679688 253.710938 209.15625 253.710938 207.28125 C 253.710938 205.410156 252.1875 203.886719 250.320312 203.886719 Z M 250.320312 203.886719 " fill-opacity="1" fill-rule="nonzero"/><g clip-path="url(#id3)"><path fill="#710000" d="M 261.660156 173.847656 C 258.042969 173.847656 255.105469 170.902344 255.105469 167.28125 C 255.105469 163.664062 258.042969 160.71875 261.660156 160.71875 C 265.273438 160.71875 268.214844 163.664062 268.214844 167.28125 C 268.214844 170.902344 265.273438 173.847656 261.660156 173.847656 Z M 261.660156 163.886719 C 259.789062 163.886719 258.269531 165.410156 258.269531 167.285156 C 258.269531 169.15625 259.789062 170.679688 261.660156 170.679688 C 263.53125 170.679688 265.050781 169.15625 265.050781 167.285156 C 265.050781 165.410156 263.53125 163.886719 261.660156 163.886719 Z M 261.660156 163.886719 " fill-opacity="1" fill-rule="nonzero"/></g><path fill="#710000" d="M 198.019531 154.730469 C 197.144531 154.730469 196.4375 154.023438 196.4375 153.148438 L 196.4375 133.519531 C 196.4375 132.644531 197.144531 131.933594 198.019531 131.933594 C 198.894531 131.933594 199.601562 132.644531 199.601562 133.519531 L 199.601562 153.148438 C 199.601562 154.023438 198.894531 154.730469 198.019531 154.730469 Z M 198.019531 154.730469 " fill-opacity="1" fill-rule="nonzero"/><path fill="#710000" d="M 166.851562 154.730469 C 165.976562 154.730469 165.269531 154.023438 165.269531 153.148438 L 165.269531 133.519531 C 165.269531 132.644531 165.976562 131.933594 166.851562 131.933594 C 167.722656 131.933594 168.433594 132.644531 168.433594 133.519531 L 168.433594 153.148438 C 168.433594 154.023438 167.722656 154.730469 166.851562 154.730469 Z M 166.851562 154.730469 " fill-opacity="1" fill-rule="nonzero"/><path fill="#710000" d="M 177.40625 153.601562 C 176.535156 153.601562 175.824219 152.890625 175.824219 152.015625 L 175.824219 141.109375 C 175.824219 140.234375 176.535156 139.523438 177.40625 139.523438 C 178.28125 139.523438 178.992188 140.234375 178.992188 141.109375 L 178.992188 152.015625 C 178.992188 152.890625 178.28125 153.601562 177.40625 153.601562 Z M 177.40625 153.601562 " fill-opacity="1" fill-rule="nonzero"/><path fill="#710000" d="M 188.585938 154.730469 C 187.714844 154.730469 187.003906 154.023438 187.003906 153.148438 L 187.003906 132.585938 L 171 116.292969 C 170.386719 115.667969 170.394531 114.664062 171.019531 114.050781 C 171.640625 113.4375 172.644531 113.445312 173.257812 114.066406 L 190.171875 131.285156 L 190.171875 153.148438 C 190.167969 154.023438 189.460938 154.730469 188.585938 154.730469 Z M 188.585938 154.730469 " fill-opacity="1" fill-rule="nonzero"/><path fill="#710000" d="M 207.195312 154.730469 C 206.324219 154.730469 205.613281 154.023438 205.613281 153.148438 L 205.613281 128.539062 C 205.613281 127.664062 206.324219 126.953125 207.195312 126.953125 C 208.070312 126.953125 208.78125 127.664062 208.78125 128.539062 L 208.78125 153.148438 C 208.777344 154.023438 208.070312 154.730469 207.195312 154.730469 Z M 207.195312 154.730469 " fill-opacity="1" fill-rule="nonzero"/><path fill="#710000" d="M 207.195312 130.125 C 203.582031 130.125 200.640625 127.179688 200.640625 123.558594 C 200.640625 119.9375 203.582031 116.992188 207.195312 116.992188 C 210.8125 116.992188 213.753906 119.9375 213.753906 123.558594 C 213.753906 127.179688 210.8125 130.125 207.195312 130.125 Z M 207.195312 120.160156 C 205.328125 120.160156 203.804688 121.683594 203.804688 123.558594 C 203.804688 125.429688 205.328125 126.953125 207.195312 126.953125 C 209.066406 126.953125 210.585938 125.429688 210.585938 123.558594 C 210.585938 121.683594 209.066406 120.160156 207.195312 120.160156 Z M 207.195312 120.160156 " fill-opacity="1" fill-rule="nonzero"/><g clip-path="url(#id4)"><path fill="#710000" d="M 167.257812 118.765625 C 163.644531 118.765625 160.703125 115.820312 160.703125 112.199219 C 160.703125 108.578125 163.644531 105.632812 167.257812 105.632812 C 170.875 105.632812 173.8125 108.578125 173.8125 112.199219 C 173.8125 115.820312 170.875 118.765625 167.257812 118.765625 Z M 167.257812 108.804688 C 165.390625 108.804688 163.867188 110.328125 163.867188 112.199219 C 163.867188 114.074219 165.390625 115.597656 167.257812 115.597656 C 169.128906 115.597656 170.648438 114.074219 170.648438 112.199219 C 170.648438 110.328125 169.128906 108.804688 167.257812 108.804688 Z M 167.257812 108.804688 " fill-opacity="1" fill-rule="nonzero"/></g><path fill="#710000" d="M 153.707031 178.296875 L 134.113281 178.296875 C 133.238281 178.296875 132.527344 177.585938 132.527344 176.710938 C 132.527344 175.835938 133.238281 175.125 134.113281 175.125 L 153.707031 175.125 C 154.582031 175.125 155.292969 175.835938 155.292969 176.710938 C 155.289062 177.585938 154.582031 178.296875 153.707031 178.296875 Z M 153.707031 178.296875 " fill-opacity="1" fill-rule="nonzero"/><path fill="#710000" d="M 153.707031 209.515625 L 134.113281 209.515625 C 133.238281 209.515625 132.527344 208.804688 132.527344 207.929688 C 132.527344 207.054688 133.238281 206.34375 134.113281 206.34375 L 153.707031 206.34375 C 154.582031 206.34375 155.292969 207.054688 155.292969 207.929688 C 155.289062 208.804688 154.582031 209.515625 153.707031 209.515625 Z M 153.707031 209.515625 " fill-opacity="1" fill-rule="nonzero"/><path fill="#710000" d="M 152.578125 198.941406 L 141.6875 198.941406 C 140.8125 198.941406 140.105469 198.230469 140.105469 197.355469 C 140.105469 196.480469 140.8125 195.769531 141.6875 195.769531 L 152.578125 195.769531 C 153.453125 195.769531 154.160156 196.480469 154.160156 197.355469 C 154.160156 198.230469 153.453125 198.941406 152.578125 198.941406 Z M 152.578125 198.941406 " fill-opacity="1" fill-rule="nonzero"/><path fill="#710000" d="M 115.800781 204.226562 C 115.390625 204.226562 114.980469 204.070312 114.671875 203.753906 C 114.058594 203.128906 114.066406 202.125 114.691406 201.511719 L 131.882812 184.574219 L 153.707031 184.574219 C 154.582031 184.574219 155.292969 185.28125 155.292969 186.160156 C 155.292969 187.035156 154.582031 187.742188 153.707031 187.742188 L 133.175781 187.742188 L 116.910156 203.773438 C 116.601562 204.074219 116.199219 204.226562 115.800781 204.226562 Z M 115.800781 204.226562 " fill-opacity="1" fill-rule="nonzero"/><path fill="#710000" d="M 153.707031 169.105469 L 129.136719 169.105469 C 128.265625 169.105469 127.554688 168.394531 127.554688 167.519531 C 127.554688 166.644531 128.265625 165.933594 129.136719 165.933594 L 153.707031 165.933594 C 154.582031 165.933594 155.292969 166.644531 155.292969 167.519531 C 155.289062 168.394531 154.582031 169.105469 153.707031 169.105469 Z M 153.707031 169.105469 " fill-opacity="1" fill-rule="nonzero"/><path fill="#710000" d="M 124.164062 174.085938 C 120.550781 174.085938 117.609375 171.140625 117.609375 167.519531 C 117.609375 163.902344 120.550781 160.953125 124.164062 160.953125 C 127.78125 160.953125 130.71875 163.902344 130.71875 167.519531 C 130.71875 171.140625 127.78125 174.085938 124.164062 174.085938 Z M 124.164062 164.125 C 122.292969 164.125 120.773438 165.648438 120.773438 167.519531 C 120.773438 169.394531 122.292969 170.917969 124.164062 170.917969 C 126.035156 170.917969 127.554688 169.394531 127.554688 167.519531 C 127.554688 165.648438 126.035156 164.125 124.164062 164.125 Z M 124.164062 164.125 " fill-opacity="1" fill-rule="nonzero"/><g clip-path="url(#id5)"><path fill="#710000" d="M 112.824219 214.085938 C 109.207031 214.085938 106.265625 211.140625 106.265625 207.519531 C 106.265625 203.898438 109.207031 200.953125 112.824219 200.953125 C 116.4375 200.953125 119.378906 203.898438 119.378906 207.519531 C 119.378906 211.140625 116.4375 214.085938 112.824219 214.085938 Z M 112.824219 204.125 C 110.953125 204.125 109.433594 205.648438 109.433594 207.519531 C 109.433594 209.394531 110.953125 210.917969 112.824219 210.917969 C 114.691406 210.917969 116.214844 209.394531 116.214844 207.519531 C 116.214844 205.648438 114.695312 204.125 112.824219 204.125 Z M 112.824219 204.125 " fill-opacity="1" fill-rule="nonzero"/></g><path fill="#710000" d="M 176.464844 242.867188 C 175.589844 242.867188 174.878906 242.160156 174.878906 241.28125 L 174.878906 221.65625 C 174.878906 220.78125 175.589844 220.070312 176.464844 220.070312 C 177.335938 220.070312 178.046875 220.78125 178.046875 221.65625 L 178.046875 241.28125 C 178.046875 242.160156 177.335938 242.867188 176.464844 242.867188 Z M 176.464844 242.867188 " fill-opacity="1" fill-rule="nonzero"/><path fill="#710000" d="M 207.632812 242.867188 C 206.757812 242.867188 206.050781 242.160156 206.050781 241.28125 L 206.050781 221.65625 C 206.050781 220.78125 206.757812 220.070312 207.632812 220.070312 C 208.507812 220.070312 209.214844 220.78125 209.214844 221.65625 L 209.214844 241.28125 C 209.214844 242.160156 208.507812 242.867188 207.632812 242.867188 Z M 207.632812 242.867188 " fill-opacity="1" fill-rule="nonzero"/><path fill="#710000" d="M 197.074219 235.28125 C 196.203125 235.28125 195.492188 234.570312 195.492188 233.695312 L 195.492188 222.789062 C 195.492188 221.914062 196.203125 221.203125 197.074219 221.203125 C 197.949219 221.203125 198.660156 221.914062 198.660156 222.789062 L 198.660156 233.695312 C 198.660156 234.570312 197.949219 235.28125 197.074219 235.28125 Z M 197.074219 235.28125 " fill-opacity="1" fill-rule="nonzero"/><path fill="#710000" d="M 202.355469 261.207031 C 201.945312 261.207031 201.535156 261.050781 201.226562 260.734375 L 184.3125 243.515625 L 184.3125 221.65625 C 184.3125 220.78125 185.019531 220.070312 185.894531 220.070312 C 186.769531 220.070312 187.476562 220.78125 187.476562 221.65625 L 187.476562 242.21875 L 203.484375 258.511719 C 204.09375 259.136719 204.085938 260.140625 203.464844 260.753906 C 203.15625 261.054688 202.753906 261.207031 202.355469 261.207031 Z M 202.355469 261.207031 " fill-opacity="1" fill-rule="nonzero"/><path fill="#710000" d="M 167.285156 247.847656 C 166.414062 247.847656 165.703125 247.140625 165.703125 246.265625 L 165.703125 221.65625 C 165.703125 220.78125 166.414062 220.070312 167.285156 220.070312 C 168.160156 220.070312 168.867188 220.78125 168.867188 221.65625 L 168.867188 246.265625 C 168.871094 247.140625 168.160156 247.847656 167.285156 247.847656 Z M 167.285156 247.847656 " fill-opacity="1" fill-rule="nonzero"/><path fill="#710000" d="M 167.285156 257.8125 C 163.671875 257.8125 160.730469 254.867188 160.730469 251.246094 C 160.730469 247.625 163.671875 244.679688 167.285156 244.679688 C 170.902344 244.679688 173.84375 247.625 173.84375 251.246094 C 173.84375 254.867188 170.902344 257.8125 167.285156 257.8125 Z M 167.285156 247.847656 C 165.417969 247.847656 163.894531 249.375 163.894531 251.246094 C 163.894531 253.117188 165.417969 254.640625 167.285156 254.640625 C 169.15625 254.640625 170.675781 253.117188 170.675781 251.246094 C 170.675781 249.375 169.15625 247.847656 167.285156 247.847656 Z M 167.285156 247.847656 " fill-opacity="1" fill-rule="nonzero"/><g clip-path="url(#id6)"><path fill="#710000" d="M 207.226562 269.167969 C 203.609375 269.167969 200.667969 266.222656 200.667969 262.605469 C 200.667969 258.984375 203.609375 256.039062 207.226562 256.039062 C 210.839844 256.039062 213.78125 258.984375 213.78125 262.605469 C 213.78125 266.222656 210.839844 269.167969 207.226562 269.167969 Z M 207.226562 259.207031 C 205.355469 259.207031 203.832031 260.730469 203.832031 262.605469 C 203.832031 264.476562 205.355469 266 207.226562 266 C 209.09375 266 210.617188 264.476562 210.617188 262.605469 C 210.617188 260.730469 209.09375 259.207031 207.226562 259.207031 Z M 207.226562 259.207031 " fill-opacity="1" fill-rule="nonzero"/></g><path fill="#0267c1" d="M 186.464844 193.949219 C 182.773438 193.949219 179.769531 190.941406 179.769531 187.238281 C 179.769531 183.539062 182.773438 180.53125 186.464844 180.53125 C 190.160156 180.53125 193.164062 183.539062 193.164062 187.238281 C 193.164062 190.941406 190.160156 193.949219 186.464844 193.949219 Z M 186.464844 183.699219 C 184.519531 183.699219 182.933594 185.289062 182.933594 187.238281 C 182.933594 189.191406 184.519531 190.777344 186.464844 190.777344 C 188.414062 190.777344 190 189.191406 190 187.238281 C 190 185.289062 188.414062 183.699219 186.464844 183.699219 Z M 186.464844 183.699219 " fill-opacity="1" fill-rule="nonzero"/><path fill="#0267c1" d="M 187.355469 207.726562 C 186.5 207.726562 184.40625 207.605469 183.4375 206.496094 C 183.144531 206.15625 182.617188 205.550781 182.292969 201.957031 C 181.628906 201.769531 180.976562 201.535156 180.34375 201.253906 C 177.777344 203.304688 176.917969 203.449219 176.535156 203.515625 C 176.402344 203.535156 176.269531 203.546875 176.132812 203.546875 C 174.742188 203.546875 173.417969 202.347656 172.75 201.632812 C 172.082031 200.917969 170.984375 199.53125 171.070312 198.21875 C 171.109375 197.648438 171.316406 196.851562 173.101562 194.644531 C 172.675781 193.882812 172.320312 193.082031 172.035156 192.257812 C 169.582031 191.941406 168.742188 191.542969 168.292969 191.222656 C 167.484375 190.648438 167.03125 189.558594 166.953125 187.992188 C 166.925781 187.460938 166.859375 184.757812 168.167969 183.613281 C 168.589844 183.246094 169.269531 182.839844 171.929688 182.542969 C 172.210938 181.667969 172.570312 180.820312 173.007812 180.007812 C 171.542969 178.09375 171.238281 177.238281 171.144531 176.699219 C 170.988281 175.78125 171.375 174.761719 172.292969 173.679688 C 173.058594 172.765625 174.765625 171.222656 176.273438 171.222656 C 176.328125 171.222656 176.378906 171.222656 176.429688 171.226562 C 177.011719 171.269531 177.820312 171.480469 180.09375 173.335938 C 180.820312 173 181.574219 172.722656 182.347656 172.507812 C 182.710938 169.441406 183.199219 168.757812 183.417969 168.445312 C 184.210938 167.324219 185.859375 167.089844 187.101562 167.089844 C 187.957031 167.089844 190.050781 167.210938 191.015625 168.320312 C 191.316406 168.667969 191.859375 169.289062 192.175781 173.054688 C 192.730469 173.277344 193.269531 173.53125 193.792969 173.820312 C 196.597656 171.527344 197.542969 171.367188 197.921875 171.300781 C 198.050781 171.28125 198.1875 171.269531 198.320312 171.269531 C 199.710938 171.269531 201.039062 172.46875 201.707031 173.183594 C 202.371094 173.894531 203.472656 175.285156 203.382812 176.59375 C 203.351562 177.050781 203.289062 177.964844 200.484375 181.207031 C 200.652344 181.613281 200.8125 182.03125 200.949219 182.390625 C 202.777344 182.550781 205.171875 182.886719 206.160156 183.589844 C 206.972656 184.167969 207.425781 185.257812 207.503906 186.824219 C 207.527344 187.355469 207.59375 190.058594 206.285156 191.203125 C 205.933594 191.511719 205.230469 192.125 200.832031 192.425781 C 200.695312 192.8125 200.550781 193.195312 200.425781 193.523438 C 201.613281 194.9375 203.105469 196.902344 203.308594 198.117188 C 203.464844 199.035156 203.078125 200.050781 202.164062 201.136719 C 201.394531 202.050781 199.691406 203.59375 198.179688 203.59375 C 198.125 203.59375 198.074219 203.589844 198.023438 203.585938 C 197.574219 203.558594 196.679688 203.496094 193.542969 200.796875 C 193.109375 201.023438 192.660156 201.230469 192.207031 201.417969 C 191.84375 205.234375 191.246094 206.078125 191.039062 206.371094 C 190.242188 207.488281 188.597656 207.726562 187.355469 207.726562 Z M 185.851562 204.355469 C 186.128906 204.445312 186.675781 204.554688 187.355469 204.554688 C 187.945312 204.554688 188.328125 204.472656 188.507812 204.414062 C 188.699219 203.890625 188.976562 202.308594 189.136719 200.160156 L 189.214844 199.097656 L 190.222656 198.769531 C 191.160156 198.464844 192.058594 198.042969 192.898438 197.515625 L 193.90625 196.878906 L 194.796875 197.675781 C 196.566406 199.265625 197.734375 200.105469 198.226562 200.371094 C 198.832031 200.082031 199.890625 199.074219 200.144531 198.53125 C 199.867188 197.925781 198.65625 196.285156 197.414062 194.878906 L 196.757812 194.136719 L 197.136719 193.21875 C 197.144531 193.203125 197.855469 191.484375 198.132812 190.484375 L 198.441406 189.378906 L 199.582031 189.320312 C 201.851562 189.210938 203.53125 188.976562 204.15625 188.785156 C 204.382812 188.15625 204.417969 186.6875 204.214844 186.125 C 203.59375 185.894531 201.578125 185.59375 199.703125 185.480469 L 198.644531 185.414062 L 198.300781 184.402344 C 198.128906 183.882812 197.589844 182.378906 197.214844 181.660156 L 196.710938 180.6875 L 197.445312 179.871094 C 199.054688 178.074219 199.902344 176.890625 200.171875 176.390625 C 199.882812 175.785156 198.875 174.726562 198.335938 174.472656 C 197.90625 174.671875 196.746094 175.4375 194.972656 176.960938 L 194.070312 177.734375 L 193.078125 177.082031 C 192.179688 176.492188 191.207031 176.027344 190.191406 175.699219 L 189.167969 175.367188 L 189.097656 174.292969 C 188.953125 172.089844 188.742188 170.921875 188.605469 170.457031 C 188.328125 170.367188 187.777344 170.257812 187.101562 170.257812 C 186.511719 170.257812 186.132812 170.339844 185.949219 170.398438 C 185.820312 170.769531 185.574219 171.847656 185.378906 173.933594 L 185.269531 175.113281 L 184.109375 175.34375 C 182.894531 175.582031 181.722656 176.007812 180.636719 176.609375 L 179.679688 177.136719 L 178.84375 176.421875 C 177.300781 175.09375 176.535156 174.613281 176.226562 174.445312 C 175.625 174.734375 174.574219 175.734375 174.316406 176.277344 C 174.441406 176.535156 174.859375 177.285156 176.148438 178.871094 L 176.871094 179.761719 L 176.257812 180.726562 C 175.535156 181.859375 175.011719 183.089844 174.699219 184.390625 L 174.429688 185.503906 L 173.292969 185.597656 C 171.441406 185.75 170.621094 185.9375 170.300781 186.03125 C 170.074219 186.664062 170.042969 188.121094 170.242188 188.683594 C 170.582031 188.804688 171.546875 189.035156 173.40625 189.222656 L 174.492188 189.332031 L 174.773438 190.386719 C 175.109375 191.644531 175.644531 192.832031 176.363281 193.917969 L 177.019531 194.914062 L 176.246094 195.824219 C 174.933594 197.359375 174.453125 198.117188 174.289062 198.425781 C 174.574219 199.03125 175.578125 200.085938 176.121094 200.34375 C 176.476562 200.171875 177.4375 199.570312 179.109375 198.171875 L 179.917969 197.492188 L 180.855469 197.984375 C 181.878906 198.523438 182.96875 198.910156 184.09375 199.132812 L 185.285156 199.371094 L 185.363281 200.582031 C 185.503906 202.75 185.714844 203.898438 185.851562 204.355469 Z M 185.851562 204.355469 " fill-opacity="1" fill-rule="nonzero"/></svg>